<?xml version="1.0" encoding="UTF-8"?>
<svg width="197px" height="56px" viewBox="0 0 197 56" version="1.1" xmlns="http://www.w3.org/2000/svg" xmlns:xlink="http://www.w3.org/1999/xlink">
    <title>1Mind</title>
    <g id="Page-1" stroke="none" stroke-width="1" fill="none" fill-rule="evenodd">
        <g id="Desktop" transform="translate(-333.000000, -456.000000)" fill="#FFFFFF" fill-rule="nonzero">
            <path d="M343.617188,510.984375 L355.359375,460.253906 L339.820312,460.253906 L337.710938,469.324219 L342.632812,469.324219 L333,510.984375 L343.617188,510.984375 Z M372.445312,510.984375 L372.445312,475.582031 L372.832031,475.582031 L388.933594,494.988281 L389.636719,494.988281 L405.84375,475.582031 L406.230469,475.582031 L406.230469,510.984375 L416.847656,510.984375 L416.847656,460.253906 L406.230469,460.253906 L389.285156,480.890625 L372.445312,460.253906 L361.828125,460.253906 L361.828125,510.984375 L372.445312,510.984375 Z M437.097656,466.40625 L437.097656,456 L426.691406,456 L426.691406,466.40625 L437.097656,466.40625 Z M437.027344,510.984375 L437.027344,472.3125 L426.761719,472.3125 L426.761719,510.984375 L437.027344,510.984375 Z M457.207031,510.984375 L457.207031,488.378906 C457.464844,485.847656 458.273438,483.84375 459.632812,482.367188 C460.992188,480.890625 462.714844,480.164062 464.800781,480.1875 C467.261719,480.1875 469.136719,480.972656 470.425781,482.542969 C471.714844,484.113281 472.359375,486.410156 472.359375,489.433594 L472.359375,489.433594 L472.359375,510.984375 L482.625,510.984375 L482.625,487.289062 C482.625,482.132812 481.382812,478.207031 478.898438,475.511719 C476.414062,472.816406 472.792969,471.46875 468.035156,471.46875 C465.667969,471.46875 463.558594,472.007812 461.707031,473.085938 C459.855469,474.164062 458.484375,475.699219 457.59375,477.691406 L457.59375,477.691406 L457.207031,477.691406 L457.207031,472.3125 L446.941406,472.3125 L446.941406,510.984375 L457.207031,510.984375 Z M507.023438,511.792969 C509.648438,511.792969 511.898438,511.294922 513.773438,510.298828 C515.648438,509.302734 517.171875,507.972656 518.34375,506.308594 L518.34375,506.308594 L518.765625,506.308594 L518.765625,510.984375 L529.03125,510.984375 L529.03125,457.40625 L518.765625,457.40625 L518.765625,476.8125 L518.308594,476.8125 C517.066406,475.125 515.490234,473.8125 513.580078,472.875 C511.669922,471.9375 509.554688,471.46875 507.234375,471.46875 C503.882812,471.46875 500.900391,472.335938 498.287109,474.070312 C495.673828,475.804688 493.640625,478.248047 492.1875,481.400391 C490.734375,484.552734 490.007812,488.191406 490.007812,492.316406 C490.007812,496.160156 490.728516,499.552734 492.169922,502.494141 C493.611328,505.435547 495.621094,507.720703 498.199219,509.349609 C500.777344,510.978516 503.71875,511.792969 507.023438,511.792969 Z M509.132812,504.234375 C507.5625,504.234375 506.103516,503.730469 504.755859,502.722656 C503.408203,501.714844 502.324219,500.302734 501.503906,498.486328 C500.683594,496.669922 500.273438,494.613281 500.273438,492.316406 C500.273438,489.855469 500.689453,487.652344 501.521484,485.707031 C502.353516,483.761719 503.472656,482.255859 504.878906,481.189453 C506.285156,480.123047 507.796875,479.589844 509.414062,479.589844 C511.148438,479.589844 512.730469,480 514.160156,480.820312 C515.589844,481.640625 516.714844,482.783203 517.535156,484.248047 C518.355469,485.712891 518.765625,487.371094 518.765625,489.222656 L518.765625,489.222656 L518.765625,494.777344 C518.765625,496.183594 518.425781,497.619141 517.746094,499.083984 C517.066406,500.548828 516,501.773438 514.546875,502.757812 C513.09375,503.742188 511.289062,504.234375 509.132812,504.234375 Z" id="1Mind"></path>
        </g>
    </g>
</svg>