<?xml version="1.0" encoding="UTF-8"?>
<svg width="197px" height="56px" viewBox="0 0 197 56" version="1.1" xmlns="http://www.w3.org/2000/svg" xmlns:xlink="http://www.w3.org/1999/xlink">
    <title>1Mind</title>
    <defs>
        <linearGradient x1="17.4449807%" y1="39.7001218%" x2="92.507318%" y2="58.5188442%" id="linearGradient-1">
            <stop stop-color="#32C5FF" offset="0%"></stop>
            <stop stop-color="#32C5FF" offset="17.4966853%"></stop>
            <stop stop-color="#FF19B4" offset="100%"></stop>
        </linearGradient>
    </defs>
    <g id="Page-1" stroke="none" stroke-width="1" fill="none" fill-rule="evenodd">
        <g id="Desktop" transform="translate(-316.000000, -238.000000)" fill="url(#linearGradient-1)" fill-rule="nonzero">
            <path d="M326.617188,292.984375 L338.359375,242.253906 L322.820312,242.253906 L320.710938,251.324219 L325.632812,251.324219 L316,292.984375 L326.617188,292.984375 Z M355.445312,292.984375 L355.445312,257.582031 L355.832031,257.582031 L371.933594,276.988281 L372.636719,276.988281 L388.84375,257.582031 L389.230469,257.582031 L389.230469,292.984375 L399.847656,292.984375 L399.847656,242.253906 L389.230469,242.253906 L372.285156,262.890625 L355.445312,242.253906 L344.828125,242.253906 L344.828125,292.984375 L355.445312,292.984375 Z M420.097656,248.40625 L420.097656,238 L409.691406,238 L409.691406,248.40625 L420.097656,248.40625 Z M420.027344,292.984375 L420.027344,254.3125 L409.761719,254.3125 L409.761719,292.984375 L420.027344,292.984375 Z M440.207031,292.984375 L440.207031,270.378906 C440.464844,267.847656 441.273438,265.84375 442.632812,264.367188 C443.992188,262.890625 445.714844,262.164062 447.800781,262.1875 C450.261719,262.1875 452.136719,262.972656 453.425781,264.542969 C454.714844,266.113281 455.359375,268.410156 455.359375,271.433594 L455.359375,271.433594 L455.359375,292.984375 L465.625,292.984375 L465.625,269.289062 C465.625,264.132812 464.382812,260.207031 461.898438,257.511719 C459.414062,254.816406 455.792969,253.46875 451.035156,253.46875 C448.667969,253.46875 446.558594,254.007812 444.707031,255.085938 C442.855469,256.164062 441.484375,257.699219 440.59375,259.691406 L440.59375,259.691406 L440.207031,259.691406 L440.207031,254.3125 L429.941406,254.3125 L429.941406,292.984375 L440.207031,292.984375 Z M490.023438,293.792969 C492.648438,293.792969 494.898438,293.294922 496.773438,292.298828 C498.648438,291.302734 500.171875,289.972656 501.34375,288.308594 L501.34375,288.308594 L501.765625,288.308594 L501.765625,292.984375 L512.03125,292.984375 L512.03125,239.40625 L501.765625,239.40625 L501.765625,258.8125 L501.308594,258.8125 C500.066406,257.125 498.490234,255.8125 496.580078,254.875 C494.669922,253.9375 492.554688,253.46875 490.234375,253.46875 C486.882812,253.46875 483.900391,254.335938 481.287109,256.070312 C478.673828,257.804688 476.640625,260.248047 475.1875,263.400391 C473.734375,266.552734 473.007812,270.191406 473.007812,274.316406 C473.007812,278.160156 473.728516,281.552734 475.169922,284.494141 C476.611328,287.435547 478.621094,289.720703 481.199219,291.349609 C483.777344,292.978516 486.71875,293.792969 490.023438,293.792969 Z M492.132812,286.234375 C490.5625,286.234375 489.103516,285.730469 487.755859,284.722656 C486.408203,283.714844 485.324219,282.302734 484.503906,280.486328 C483.683594,278.669922 483.273438,276.613281 483.273438,274.316406 C483.273438,271.855469 483.689453,269.652344 484.521484,267.707031 C485.353516,265.761719 486.472656,264.255859 487.878906,263.189453 C489.285156,262.123047 490.796875,261.589844 492.414062,261.589844 C494.148438,261.589844 495.730469,262 497.160156,262.820312 C498.589844,263.640625 499.714844,264.783203 500.535156,266.248047 C501.355469,267.712891 501.765625,269.371094 501.765625,271.222656 L501.765625,271.222656 L501.765625,276.777344 C501.765625,278.183594 501.425781,279.619141 500.746094,281.083984 C500.066406,282.548828 499,283.773438 497.546875,284.757812 C496.09375,285.742188 494.289062,286.234375 492.132812,286.234375 Z" id="1Mind"></path>
        </g>
    </g>
</svg>