<?xml version="1.0" encoding="UTF-8"?>
<svg width="197px" height="56px" viewBox="0 0 197 56" version="1.1" xmlns="http://www.w3.org/2000/svg" xmlns:xlink="http://www.w3.org/1999/xlink">
    <title>1Mind</title>
    <g id="Page-1" stroke="none" stroke-width="1" fill="none" fill-rule="evenodd">
        <g id="Desktop" transform="translate(-337.000000, -466.000000)" fill="#3E3E3E" fill-rule="nonzero">
            <path d="M347.996094,521 L359.738281,470.269531 L344.199219,470.269531 L342.089844,479.339844 L347.011719,479.339844 L337.378906,521 L347.996094,521 Z M376.824219,521 L376.824219,485.597656 L377.210938,485.597656 L393.3125,505.003906 L394.015625,505.003906 L410.222656,485.597656 L410.609375,485.597656 L410.609375,521 L421.226562,521 L421.226562,470.269531 L410.609375,470.269531 L393.664062,490.90625 L376.824219,470.269531 L366.207031,470.269531 L366.207031,521 L376.824219,521 Z M441.476562,476.421875 L441.476562,466.015625 L431.070312,466.015625 L431.070312,476.421875 L441.476562,476.421875 Z M441.40625,521 L441.40625,482.328125 L431.140625,482.328125 L431.140625,521 L441.40625,521 Z M461.585938,521 L461.585938,498.394531 C461.84375,495.863281 462.652344,493.859375 464.011719,492.382812 C465.371094,490.90625 467.09375,490.179688 469.179688,490.203125 C471.640625,490.203125 473.515625,490.988281 474.804688,492.558594 C476.09375,494.128906 476.738281,496.425781 476.738281,499.449219 L476.738281,499.449219 L476.738281,521 L487.003906,521 L487.003906,497.304688 C487.003906,492.148438 485.761719,488.222656 483.277344,485.527344 C480.792969,482.832031 477.171875,481.484375 472.414062,481.484375 C470.046875,481.484375 467.9375,482.023438 466.085938,483.101562 C464.234375,484.179688 462.863281,485.714844 461.972656,487.707031 L461.972656,487.707031 L461.585938,487.707031 L461.585938,482.328125 L451.320312,482.328125 L451.320312,521 L461.585938,521 Z M511.402344,521.808594 C514.027344,521.808594 516.277344,521.310547 518.152344,520.314453 C520.027344,519.318359 521.550781,517.988281 522.722656,516.324219 L522.722656,516.324219 L523.144531,516.324219 L523.144531,521 L533.410156,521 L533.410156,467.421875 L523.144531,467.421875 L523.144531,486.828125 L522.6875,486.828125 C521.445312,485.140625 519.869141,483.828125 517.958984,482.890625 C516.048828,481.953125 513.933594,481.484375 511.613281,481.484375 C508.261719,481.484375 505.279297,482.351562 502.666016,484.085938 C500.052734,485.820312 498.019531,488.263672 496.566406,491.416016 C495.113281,494.568359 494.386719,498.207031 494.386719,502.332031 C494.386719,506.175781 495.107422,509.568359 496.548828,512.509766 C497.990234,515.451172 500,517.736328 502.578125,519.365234 C505.15625,520.994141 508.097656,521.808594 511.402344,521.808594 Z M513.511719,514.25 C511.941406,514.25 510.482422,513.746094 509.134766,512.738281 C507.787109,511.730469 506.703125,510.318359 505.882812,508.501953 C505.0625,506.685547 504.652344,504.628906 504.652344,502.332031 C504.652344,499.871094 505.068359,497.667969 505.900391,495.722656 C506.732422,493.777344 507.851562,492.271484 509.257812,491.205078 C510.664062,490.138672 512.175781,489.605469 513.792969,489.605469 C515.527344,489.605469 517.109375,490.015625 518.539062,490.835938 C519.96875,491.65625 521.09375,492.798828 521.914062,494.263672 C522.734375,495.728516 523.144531,497.386719 523.144531,499.238281 L523.144531,499.238281 L523.144531,504.792969 C523.144531,506.199219 522.804688,507.634766 522.125,509.099609 C521.445312,510.564453 520.378906,511.789062 518.925781,512.773438 C517.472656,513.757812 515.667969,514.25 513.511719,514.25 Z" id="1Mind"></path>
        </g>
    </g>
</svg>