<?xml version="1.0" encoding="UTF-8"?>
<svg width="288px" height="56px" viewBox="0 0 288 56" version="1.1" xmlns="http://www.w3.org/2000/svg" xmlns:xlink="http://www.w3.org/1999/xlink">
    <title>oneMind</title>
    <g id="Page-1" stroke="none" stroke-width="1" fill="none" fill-rule="evenodd">
        <g id="Desktop" transform="translate(-333.000000, -586.000000)" fill="#3E3E3E" fill-rule="nonzero">
            <path d="M350.777344,641.703125 C354.269531,641.703125 357.351562,640.888672 360.023438,639.259766 C362.695312,637.630859 364.775391,635.339844 366.263672,632.386719 C367.751953,629.433594 368.496094,626.023438 368.496094,622.15625 C368.496094,618.289062 367.751953,614.884766 366.263672,611.943359 C364.775391,609.001953 362.695312,606.722656 360.023438,605.105469 C357.351562,603.488281 354.269531,602.679688 350.777344,602.679688 C347.285156,602.679688 344.197266,603.488281 341.513672,605.105469 C338.830078,606.722656 336.744141,609.001953 335.255859,611.943359 C333.767578,614.884766 333.023438,618.289062 333.023438,622.15625 C333.023438,626.023438 333.767578,629.433594 335.255859,632.386719 C336.744141,635.339844 338.830078,637.630859 341.513672,639.259766 C344.197266,640.888672 347.285156,641.703125 350.777344,641.703125 Z M350.777344,636.429688 C348.457031,636.429688 346.40625,635.837891 344.625,634.654297 C342.84375,633.470703 341.455078,631.794922 340.458984,629.626953 C339.462891,627.458984 338.964844,624.96875 338.964844,622.15625 C338.964844,619.34375 339.457031,616.865234 340.441406,614.720703 C341.425781,612.576172 342.808594,610.912109 344.589844,609.728516 C346.371094,608.544922 348.421875,607.953125 350.742188,607.953125 C353.0625,607.953125 355.113281,608.544922 356.894531,609.728516 C358.675781,610.912109 360.058594,612.576172 361.042969,614.720703 C362.027344,616.865234 362.519531,619.34375 362.519531,622.15625 C362.519531,624.992188 362.027344,627.488281 361.042969,629.644531 C360.058594,631.800781 358.681641,633.470703 356.912109,634.654297 C355.142578,635.837891 353.097656,636.429688 350.777344,636.429688 Z M382.277344,641 L382.277344,616.917969 C382.441406,615.136719 382.927734,613.560547 383.736328,612.189453 C384.544922,610.818359 385.59375,609.757812 386.882812,609.007812 C388.171875,608.257812 389.613281,607.882812 391.207031,607.882812 C397.207031,607.882812 400.207031,611.339844 400.207031,618.253906 L400.207031,618.253906 L400.207031,641 L406.21875,641 L406.21875,617.058594 C406.21875,612.347656 405.09375,608.779297 402.84375,606.353516 C400.59375,603.927734 397.3125,602.714844 393,602.714844 C390.703125,602.714844 388.628906,603.248047 386.777344,604.314453 C384.925781,605.380859 383.53125,606.933594 382.59375,608.972656 L382.59375,608.972656 L382.277344,608.972656 L382.277344,603.382812 L376.265625,603.382812 L376.265625,641 L382.277344,641 Z M431.566406,641.703125 C435.972656,641.703125 439.980469,640.484375 443.589844,638.046875 L443.589844,638.046875 L442.5,633.441406 C440.90625,634.472656 439.201172,635.240234 437.384766,635.744141 C435.568359,636.248047 433.757812,636.5 431.953125,636.5 C429.46875,636.5 427.306641,636.007812 425.466797,635.023438 C423.626953,634.039062 422.197266,632.609375 421.177734,630.734375 C420.158203,628.859375 419.636719,626.609375 419.613281,623.984375 L419.613281,623.984375 L445.488281,623.984375 C445.488281,623.867188 445.505859,623.527344 445.541016,622.964844 C445.576172,622.402344 445.59375,621.769531 445.59375,621.066406 C445.59375,617.386719 444.955078,614.175781 443.677734,611.433594 C442.400391,608.691406 440.566406,606.564453 438.175781,605.052734 C435.785156,603.541016 432.984375,602.761719 429.773438,602.714844 C426.539062,602.714844 423.708984,603.505859 421.283203,605.087891 C418.857422,606.669922 416.982422,608.925781 415.658203,611.855469 C414.333984,614.785156 413.671875,618.183594 413.671875,622.050781 C413.671875,626.152344 414.375,629.673828 415.78125,632.615234 C417.1875,635.556641 419.232422,637.806641 421.916016,639.365234 C424.599609,640.923828 427.816406,641.703125 431.566406,641.703125 Z M439.722656,619.730469 L419.613281,619.730469 C419.636719,617.410156 420.076172,615.365234 420.931641,613.595703 C421.787109,611.826172 422.976562,610.449219 424.5,609.464844 C426.023438,608.480469 427.78125,607.988281 429.773438,607.988281 C431.765625,607.988281 433.511719,608.46875 435.011719,609.429688 C436.511719,610.390625 437.671875,611.755859 438.492188,613.525391 C439.3125,615.294922 439.722656,617.363281 439.722656,619.730469 L439.722656,619.730469 Z M464.15625,641 L464.15625,605.597656 L464.542969,605.597656 L480.644531,625.003906 L481.347656,625.003906 L497.554688,605.597656 L497.941406,605.597656 L497.941406,641 L508.558594,641 L508.558594,590.269531 L497.941406,590.269531 L480.996094,610.90625 L464.15625,590.269531 L453.539062,590.269531 L453.539062,641 L464.15625,641 Z M528.808594,596.421875 L528.808594,586.015625 L518.402344,586.015625 L518.402344,596.421875 L528.808594,596.421875 Z M528.738281,641 L528.738281,602.328125 L518.472656,602.328125 L518.472656,641 L528.738281,641 Z M548.917969,641 L548.917969,618.394531 C549.175781,615.863281 549.984375,613.859375 551.34375,612.382812 C552.703125,610.90625 554.425781,610.179688 556.511719,610.203125 C558.972656,610.203125 560.847656,610.988281 562.136719,612.558594 C563.425781,614.128906 564.070312,616.425781 564.070312,619.449219 L564.070312,619.449219 L564.070312,641 L574.335938,641 L574.335938,617.304688 C574.335938,612.148438 573.09375,608.222656 570.609375,605.527344 C568.125,602.832031 564.503906,601.484375 559.746094,601.484375 C557.378906,601.484375 555.269531,602.023438 553.417969,603.101562 C551.566406,604.179688 550.195312,605.714844 549.304688,607.707031 L549.304688,607.707031 L548.917969,607.707031 L548.917969,602.328125 L538.652344,602.328125 L538.652344,641 L548.917969,641 Z M598.734375,641.808594 C601.359375,641.808594 603.609375,641.310547 605.484375,640.314453 C607.359375,639.318359 608.882812,637.988281 610.054688,636.324219 L610.054688,636.324219 L610.476562,636.324219 L610.476562,641 L620.742188,641 L620.742188,587.421875 L610.476562,587.421875 L610.476562,606.828125 L610.019531,606.828125 C608.777344,605.140625 607.201172,603.828125 605.291016,602.890625 C603.380859,601.953125 601.265625,601.484375 598.945312,601.484375 C595.59375,601.484375 592.611328,602.351562 589.998047,604.085938 C587.384766,605.820312 585.351562,608.263672 583.898438,611.416016 C582.445312,614.568359 581.71875,618.207031 581.71875,622.332031 C581.71875,626.175781 582.439453,629.568359 583.880859,632.509766 C585.322266,635.451172 587.332031,637.736328 589.910156,639.365234 C592.488281,640.994141 595.429688,641.808594 598.734375,641.808594 Z M600.84375,634.25 C599.273438,634.25 597.814453,633.746094 596.466797,632.738281 C595.119141,631.730469 594.035156,630.318359 593.214844,628.501953 C592.394531,626.685547 591.984375,624.628906 591.984375,622.332031 C591.984375,619.871094 592.400391,617.667969 593.232422,615.722656 C594.064453,613.777344 595.183594,612.271484 596.589844,611.205078 C597.996094,610.138672 599.507812,609.605469 601.125,609.605469 C602.859375,609.605469 604.441406,610.015625 605.871094,610.835938 C607.300781,611.65625 608.425781,612.798828 609.246094,614.263672 C610.066406,615.728516 610.476562,617.386719 610.476562,619.238281 L610.476562,619.238281 L610.476562,624.792969 C610.476562,626.199219 610.136719,627.634766 609.457031,629.099609 C608.777344,630.564453 607.710938,631.789062 606.257812,632.773438 C604.804688,633.757812 603,634.25 600.84375,634.25 Z" id="oneMind"></path>
        </g>
    </g>
</svg>